<svg width="20" height="20" viewBox="0 0 20 20" fill="none" xmlns="http://www.w3.org/2000/svg">
<path d="M16.8613 16.6773C20.5489 12.8879 20.4671 6.82635 16.6777 3.13837C12.888 -0.549178 6.82596 -0.466551 3.13883 3.32322C-0.548291 7.11256 -0.466516 13.1741 3.32283 16.8613C7.11217 20.5492 13.1742 20.4662 16.8613 16.6773Z" fill="url(#paint0_linear_9963_2)"/>
<path d="M18.6588 5.00092C15.898 0.218771 9.78317 -1.41971 5.0006 1.34105C0.218454 4.10182 -1.41961 10.2171 1.34116 14.9992C4.10235 19.7814 10.2172 21.4198 14.9993 18.6587C19.7815 15.8979 21.4195 9.78264 18.6588 5.00092ZM14.3072 17.4601C10.1865 19.8389 4.91797 18.4278 2.53925 14.3071C0.160956 10.1868 1.572 4.91872 5.69271 2.53957C9.81341 0.160422 15.0819 1.57232 17.4607 5.69217C19.8394 9.81288 18.4279 15.081 14.3072 17.4597V17.4601Z" fill="url(#paint1_linear_9963_2)"/>
<path d="M4.16699 8.61264C4.16699 7.62623 4.83823 7.06274 6.06827 7.06274C7.2983 7.06274 7.96954 7.62623 7.96954 8.61264V11.8176C7.96954 12.804 7.2983 13.3675 6.06827 13.3675C4.83823 13.3675 4.16699 12.804 4.16699 11.8176V8.61264ZM5.41917 11.8794C5.41917 12.3198 5.66961 12.4867 6.06869 12.4867C6.46777 12.4867 6.71778 12.3194 6.71778 11.8794V8.55088C6.71778 8.11091 6.46735 7.94353 6.06869 7.94353C5.67004 7.94353 5.41917 8.11091 5.41917 8.55088V11.8794Z" fill="#F9F9F9"/>
<path d="M10.0293 9.87166C10.6938 9.53562 11.3016 9.45597 11.5545 9.72345C11.5903 9.76093 11.6223 9.80948 11.6461 9.87166V10.752H10.0293V13.2969H8.77674C8.75076 13.2419 8.70093 13.1303 8.70093 13.1303C8.70093 13.1303 8.8287 10.0638 8.77674 7.13262C9.06806 7.01464 11.9805 6.95459 11.9805 6.95459C11.9805 6.95459 12.0597 7.0649 12.0899 7.13262V8.01341H10.0293V9.87124V9.87166Z" fill="#F9F9F9"/>
<path d="M13.9447 9.87166C14.5784 9.80863 15.4729 9.72345 15.4729 9.72345C15.4729 9.72345 15.5389 9.80906 15.5614 9.87166V10.752H13.9447V13.2969H12.6925C12.6695 13.2687 12.6192 13.1303 12.6192 13.1303C12.6192 13.1303 12.6163 13.0686 12.6192 13.0451C12.6435 11.0744 12.6682 9.10374 12.6925 7.13262C12.9825 7.01677 14.4933 7.08236 15.8988 6.95459C15.9405 7.00613 15.9763 7.0649 16.0052 7.13262V8.01341H13.9447V9.87124V9.87166Z" fill="#F9F9F9"/>
<path d="M3.99463 8.1821C3.99463 7.19568 4.66587 6.6322 5.8959 6.6322C7.12594 6.6322 7.79718 7.19568 7.79718 8.1821V11.3871C7.79718 12.3735 7.12594 12.937 5.8959 12.937C4.66587 12.937 3.99463 12.3735 3.99463 11.3871V8.1821ZM5.24681 11.4488C5.24681 11.8892 5.49725 12.0562 5.89633 12.0562C6.29541 12.0562 6.54542 11.8888 6.54542 11.4488V8.12034C6.54542 7.68037 6.29498 7.51299 5.89633 7.51299C5.49767 7.51299 5.24681 7.68037 5.24681 8.12034V11.4488Z" fill="#B6B6B6"/>
<path d="M9.85728 9.44113H11.474C11.5056 9.50587 11.555 9.68092 11.555 9.68092C11.555 9.68092 11.5239 10.2108 11.474 10.3215H9.85728V12.8663C9.38239 12.9604 8.70093 13.1308 8.70093 13.1308C8.70093 13.1308 8.65834 13.003 8.60425 12.8663V6.70251H11.9174C11.943 6.77407 11.98 6.95508 11.98 6.95508C11.98 6.95508 11.9638 7.44744 11.9174 7.5833H9.85686V9.44113H9.85728Z" fill="#B6B6B6"/>
<path d="M13.7727 9.44113H15.3895C15.4227 9.51396 15.4734 9.72351 15.4734 9.72351C15.4734 9.72351 15.4363 10.2142 15.3895 10.3215H13.7727V12.8663C13.2812 13.2292 12.7901 13.0456 12.6197 13.1308C12.5772 13.0456 12.5772 13.003 12.5205 12.8663V6.70251H15.8333C15.8601 6.77364 15.8844 6.85797 15.8988 6.95508C15.9393 7.22596 15.8805 7.45169 15.8333 7.5833H13.7727V9.44113Z" fill="#B6B6B6"/>
<path d="M4.08057 8.44064C4.08057 7.45423 4.7518 6.89075 5.98184 6.89075C7.21187 6.89075 7.88311 7.45423 7.88311 8.44064V11.6456C7.88311 12.632 7.21187 13.1955 5.98184 13.1955C4.7518 13.1955 4.08057 12.632 4.08057 11.6456V8.44064ZM5.33275 11.7074C5.33275 12.1478 5.58319 12.3147 5.98227 12.3147C6.38135 12.3147 6.63136 12.1474 6.63136 11.7074V8.37889C6.63136 7.93892 6.38092 7.77153 5.98227 7.77153C5.58361 7.77153 5.33275 7.93892 5.33275 8.37889V11.7074Z" fill="#CFCFCF"/>
<path d="M9.94328 9.69968H11.56V10.58H9.94328V13.1249H8.69067V6.96106H12.0038V7.84185H9.94328V9.69968Z" fill="#CFCFCF"/>
<path d="M13.8586 9.69968H15.4754V10.58H13.8586V13.1249H12.6064V6.96106H15.9192V7.84185H13.8586V9.69968Z" fill="#CFCFCF"/>
<defs>
<linearGradient id="paint0_linear_9963_2" x1="16.8709" y1="16.6699" x2="3.14862" y2="3.31624" gradientUnits="userSpaceOnUse">
<stop stop-color="white"/>
<stop offset="0.4" stop-color="#FBFBFC"/>
<stop offset="0.71" stop-color="#F2F2F3"/>
<stop offset="0.99" stop-color="#E1E2E5"/>
<stop offset="1" stop-color="#E1E2E5"/>
</linearGradient>
<linearGradient id="paint1_linear_9963_2" x1="2.92811" y1="2.928" x2="16.8286" y2="16.8285" gradientUnits="userSpaceOnUse">
<stop stop-color="white"/>
<stop offset="0.29" stop-color="#FBFBFB"/>
<stop offset="0.56" stop-color="#F0EFF0"/>
<stop offset="0.83" stop-color="#DEDCDF"/>
<stop offset="1" stop-color="#CECCD0"/>
</linearGradient>
</defs>
</svg>
