<svg width="20" height="20" viewBox="0 0 20 20" fill="none" xmlns="http://www.w3.org/2000/svg">
<path d="M16.8613 16.6775C20.5489 12.8882 20.4671 6.82659 16.6777 3.13862C12.888 -0.548934 6.82596 -0.466307 3.13883 3.32346C-0.548291 7.11281 -0.466516 13.1744 3.32283 16.8615C7.11217 20.5495 13.1742 20.4664 16.8613 16.6775Z" fill="url(#paint0_linear_9376_527)"/>
<path d="M18.6588 5.00116C15.898 0.219016 9.78317 -1.41947 5.0006 1.3413C0.218454 4.10206 -1.41961 10.2173 1.34116 14.9995C4.10235 19.7816 10.2172 21.4201 14.9993 18.6589C19.7815 15.8981 21.4195 9.78288 18.6588 5.00116ZM14.3072 17.4604C10.1865 19.8391 4.91797 18.4281 2.53925 14.3074C0.160956 10.1871 1.572 4.91896 5.69271 2.53981C9.81341 0.160666 15.0819 1.57257 17.4607 5.69242C19.8394 9.81312 18.4279 15.0812 14.3072 17.46V17.4604Z" fill="url(#paint1_linear_9376_527)"/>
<path d="M5.77783 8.64301C5.77783 7.66383 6.4495 7.10376 7.67953 7.10376C8.90957 7.10376 9.5808 7.66341 9.5808 8.64301V11.8259C9.5808 12.8055 8.90914 13.3651 7.67953 13.3651C6.44992 13.3651 5.77783 12.8055 5.77783 11.8259V8.64301ZM7.03001 11.8868C7.03001 12.3242 7.28045 12.4903 7.67953 12.4903C8.07861 12.4903 8.3282 12.3242 8.3282 11.8868V8.58125C8.3282 8.14426 8.07776 7.97773 7.67953 7.97773C7.2813 7.97773 7.03001 8.14384 7.03001 8.58125V11.8868Z" fill="#25EA63"/>
<path d="M11.5035 8.86148V13.2948H10.3761C10.3467 13.1943 10.3335 13.0005 10.3335 13.0005C10.3335 13.0005 10.3761 9.11575 10.3761 7.17359H11.9473L13.2348 10.8377V7.17359C13.5406 7.039 14.1705 6.78601 14.2983 6.96063C14.3017 6.96532 14.3051 6.97043 14.3077 6.97597C14.3217 7.04198 14.3362 7.10757 14.3503 7.17359V13.2948H13.064L11.5039 8.86148H11.5035Z" fill="#25EA63"/>
<path d="M5.65015 8.1745C5.65015 7.19533 6.32181 6.63525 7.55185 6.63525C8.78188 6.63525 9.45312 7.1949 9.45312 8.1745V11.3573C9.45312 12.3369 8.78146 12.8966 7.55185 12.8966C6.32224 12.8966 5.65015 12.3369 5.65015 11.3573V8.1745ZM6.90233 11.4183C6.90233 11.8557 7.15277 12.0218 7.55185 12.0218C7.95093 12.0218 8.20051 11.8557 8.20051 11.4183V8.11274C8.20051 7.67576 7.95007 7.50923 7.55185 7.50923C7.15362 7.50923 6.90233 7.67533 6.90233 8.11274V11.4183Z" fill="#019E3F"/>
<path d="M11.3756 8.39297V12.8263C11.0937 12.8263 10.3462 13.0665 10.3462 13.0665L10.2478 12.8263V6.70508H11.819L13.1065 10.3692V6.70508H14.222C14.2322 6.74341 14.2463 6.79239 14.2646 6.84818C14.2872 6.91633 14.3072 6.96701 14.3072 6.96701C14.3072 6.96701 14.3178 8.75074 14.222 12.8259H12.9357L11.3756 8.39254V8.39297Z" fill="#019E3F"/>
<path d="M5.73535 8.43C5.73535 7.45082 6.40702 6.89075 7.63705 6.89075C8.86709 6.89075 9.53832 7.4504 9.53832 8.43V11.6128C9.53832 12.5924 8.86666 13.1521 7.63705 13.1521C6.40744 13.1521 5.73535 12.5924 5.73535 11.6128V8.43ZM6.98753 11.6737C6.98753 12.1112 7.23797 12.2773 7.63705 12.2773C8.03613 12.2773 8.28572 12.1112 8.28572 11.6737V8.36824C8.28572 7.93125 8.03528 7.76472 7.63705 7.76472C7.23882 7.76472 6.98753 7.93083 6.98753 8.36824V11.6737Z" fill="#02BB4F"/>
<path d="M11.4609 8.64846V13.0818H10.3335V6.96057H11.9047L13.1922 10.6247V6.96057H14.3077V13.0818H13.0214L11.4613 8.64846H11.4609Z" fill="#02BB4F"/>
<defs>
<linearGradient id="paint0_linear_9376_527" x1="16.8727" y1="16.672" x2="3.15043" y2="3.31834" gradientUnits="userSpaceOnUse">
<stop stop-color="white"/>
<stop offset="0.4" stop-color="#FBFBFC"/>
<stop offset="0.71" stop-color="#F2F2F3"/>
<stop offset="0.99" stop-color="#E1E2E5"/>
<stop offset="1" stop-color="#E1E2E5"/>
</linearGradient>
<linearGradient id="paint1_linear_9376_527" x1="2.92811" y1="2.92825" x2="16.8286" y2="16.8288" gradientUnits="userSpaceOnUse">
<stop stop-color="white"/>
<stop offset="0.29" stop-color="#FBFBFB"/>
<stop offset="0.56" stop-color="#F0EFF0"/>
<stop offset="0.83" stop-color="#DEDCDF"/>
<stop offset="1" stop-color="#CECCD0"/>
</linearGradient>
</defs>
</svg>
